<svg id="Componente_10_1" data-name="Componente 10 – 1" xmlns="http://www.w3.org/2000/svg" width="219.878" height="78.46" viewBox="0 0 219.878 78.46">
  <g id="Grupo_29" data-name="Grupo 29" transform="translate(-2586.77 -4737.296)">
    <g id="Grupo_27" data-name="Grupo 27">
      <path id="Caminho_107" data-name="Caminho 107" d="M2759.782,4755.745l-.006-.043a57.194,57.194,0,0,1,4.353,21.9H2707.02Z" fill="#b21922"/>
      <path id="Caminho_108" data-name="Caminho 108" d="M2753.141,4758.5a49.983,49.983,0,0,0-10.829-16.187L2707.02,4777.6Z" fill="#d0681c"/>
      <path id="Caminho_109" data-name="Caminho 109" d="M2737.874,4746.746a43.692,43.692,0,0,0-14.159-9.45l-16.7,40.3Z" fill="#fae000"/>
      <path id="Caminho_110" data-name="Caminho 110" d="M2721.616,4742.364a38.193,38.193,0,0,0-14.6-2.9V4777.6Z" fill="#c0ce2e"/>
      <path id="Caminho_111" data-name="Caminho 111" d="M2707.02,4744.278a33.37,33.37,0,0,0-12.75,2.542l12.75,30.78Z" fill="#56a3dd"/>
      <path id="Caminho_112" data-name="Caminho 112" d="M2707.02,4777.6l-11.149-26.914a29.158,29.158,0,0,0-9.447,6.319Z" fill="#221f54"/>
    </g>
    <g id="Grupo_28" data-name="Grupo 28">
      <path id="Caminho_113" data-name="Caminho 113" d="M2764.913,4794.781a8.329,8.329,0,0,0,.658-3.444,5.515,5.515,0,0,0-2.117-4.584,9.728,9.728,0,0,0-6.115-1.662h-7.706l-3.063,17.349-.585,3.315h6.714l1.226-6.741h1.984a16.478,16.478,0,0,0,4.057-.454,8.55,8.55,0,0,0,3.036-1.386,6,6,0,0,0,1.911-2.393m-6.844-1.313a4.312,4.312,0,0,1-2.189.466h-1.08l.642-3.56h1.021a3.679,3.679,0,0,1,1.752.35,1.332,1.332,0,0,1,.643,1.285,1.578,1.578,0,0,1-.789,1.459" fill="#56a3dd"/>
      <path id="Caminho_114" data-name="Caminho 114" d="M2805.977,4790.169a8.263,8.263,0,0,0-1.97-2.977,8.849,8.849,0,0,0-3.211-1.941,13.072,13.072,0,0,0-4.421-.686,13.326,13.326,0,0,0-5.152.963,11.577,11.577,0,0,0-6.494,6.539,12.755,12.755,0,0,0-.905,4.816,10.352,10.352,0,0,0,.671,3.794,8.243,8.243,0,0,0,1.97,2.977,8.842,8.842,0,0,0,3.211,1.941,12.989,12.989,0,0,0,4.392.686,13.374,13.374,0,0,0,5.181-.964,11.981,11.981,0,0,0,3.97-2.627,11.511,11.511,0,0,0,2.54-3.91,12.965,12.965,0,0,0,.889-4.816,10.355,10.355,0,0,0-.671-3.795m-6.713,6.392a5.854,5.854,0,0,1-.992,1.81,4.84,4.84,0,0,1-1.547,1.255,4.386,4.386,0,0,1-2.043.467,4.317,4.317,0,0,1-1.649-.292,3.342,3.342,0,0,1-1.2-.8,3.393,3.393,0,0,1-.73-1.2,4.283,4.283,0,0,1-.248-1.474,6.332,6.332,0,0,1,.35-2.072,5.805,5.805,0,0,1,.993-1.81,4.952,4.952,0,0,1,1.561-1.27,4.38,4.38,0,0,1,2.058-.482,4.262,4.262,0,0,1,1.619.292,3.309,3.309,0,0,1,1.927,2,4.307,4.307,0,0,1,.248,1.474,6.442,6.442,0,0,1-.35,2.1" fill="#56a3dd"/>
      <path id="Caminho_115" data-name="Caminho 115" d="M2779.207,4797.32a6.067,6.067,0,0,0,3.312-2.277,7.009,7.009,0,0,0,1.212-4.232,5.577,5.577,0,0,0-.512-2.437,4.85,4.85,0,0,0-1.474-1.795,6.853,6.853,0,0,0-2.335-1.11,11.511,11.511,0,0,0-3.064-.379h-8.494l-3.648,20.665h6.508l1.285-7.56h.817l2.1,5.612h0l.73,1.948h7.588Zm-6.393-3.415.613-3.473h1.254a3.654,3.654,0,0,1,1.708.335,1.281,1.281,0,0,1,.629,1.241,1.555,1.555,0,0,1-.76,1.444,4.1,4.1,0,0,1-2.1.453Z" fill="#56a3dd"/>
      <text id="ARQUITETO" transform="translate(2747.77 4805.756)" fill="#2e2f7b" font-size="29.735" font-family="Geomanist-Ultra, Geomanist" letter-spacing="-0.02em"><tspan x="-160" y="0">ARQUITETO</tspan></text>
    </g>
  </g>
</svg>
