<svg xmlns="http://www.w3.org/2000/svg" width="15.693" height="18.5" viewBox="0 0 15.693 18.5">
  <g id="_1904662-location-map-map-location-map-point-pin-place-placeholder_122512" data-name="1904662-location-map-map-location-map-point-pin-place-placeholder_122512" transform="translate(-9.749 0.206)">
    <path id="Caminho_64" data-name="Caminho 64" d="M17.6,18.044a.971.971,0,0,1-.688-.281l-4.625-4.625A7.744,7.744,0,0,1,10,7.591,7.5,7.5,0,0,1,12.231,2.23a7.675,7.675,0,0,1,10.728,0h0a7.5,7.5,0,0,1,2.232,5.361,7.744,7.744,0,0,1-2.283,5.547l-4.625,4.617a.971.971,0,0,1-.688.29ZM17.6.882A6.779,6.779,0,0,0,12.824,2.83a6.659,6.659,0,0,0-1.981,4.762,6.907,6.907,0,0,0,2.036,4.947L17.5,17.157a.128.128,0,0,0,.184,0l4.625-4.617a6.907,6.907,0,0,0,2.036-4.947A6.659,6.659,0,0,0,22.367,2.83h0A6.779,6.779,0,0,0,17.6.882Z" transform="translate(0 0)" fill="#fff" stroke="#fff" stroke-width="0.5"/>
    <path id="Caminho_65" data-name="Caminho 65" d="M40.592,34.574a3.833,3.833,0,1,1,2.715-1.125A3.833,3.833,0,0,1,40.592,34.574Zm0-6.821a2.991,2.991,0,1,0,2.119.875h0a2.989,2.989,0,0,0-2.119-.875Z" transform="translate(-22.997 -23.084)" fill="#fff" stroke="#fff" stroke-width="0.5"/>
  </g>
</svg>
