<svg xmlns="http://www.w3.org/2000/svg" width="46.846" height="46.846" viewBox="0 0 46.846 46.846">
  <path id="Caminho_348" data-name="Caminho 348" d="M502.6,3063.739l-17.321-25.982v-5.413h6.106a4.4,4.4,0,0,0,4.142,2.928h2.928a1.463,1.463,0,0,0,1.464-1.464V3022.1a1.463,1.463,0,0,0-1.464-1.464h-5.534a4.365,4.365,0,0,0-3.25-1.464h-5.856a1.463,1.463,0,0,0-1.464,1.464v17.125l-8.784,13.175-3.168-4.752,0,0,0,0a1.42,1.42,0,0,0-.271-.27,1.435,1.435,0,0,0-.135-.136h0a1.47,1.47,0,0,0-.531-.218,40.185,40.185,0,0,0-.56,0,1.469,1.469,0,0,0-.531.218h0c-.044.029-.067.074-.107.107a1.431,1.431,0,0,0-.3.3l0,0,0,0-11.706,17.559a1.464,1.464,0,0,0,1.218,2.276h43.918a1.464,1.464,0,0,0,1.218-2.276Zm-18.785-22.9,4.558,6.836-1.63,1.63-1.893-1.893a1.464,1.464,0,0,0-2.07,0l-1.893,1.893-1.63-1.63Zm5.856-18.743a1.465,1.465,0,0,1,1.464,1.464v1.464a1.464,1.464,0,1,0,2.928,0v-1.464h2.928v8.783h-1.464a1.465,1.465,0,0,1-1.464-1.464,1.463,1.463,0,0,0-1.464-1.464h-7.32v-7.32Zm-20.5,27.526,2.632,3.948-6.344,9.516H460.2Zm-.193,13.464,8.619-12.927,2.251,2.251a1.464,1.464,0,0,0,2.07,0l1.893-1.893,1.893,1.893a1.463,1.463,0,0,0,2.07,0l2.251-2.251,8.619,12.927Z" transform="translate(-456.001 -3019.168)" fill="#33a7dd"/>
</svg>
