<svg xmlns="http://www.w3.org/2000/svg" width="45.219" height="40.883" viewBox="0 0 45.219 40.883">
  <path id="Caminho_352" data-name="Caminho 352" d="M1762.657,3036.749a21.007,21.007,0,0,0-36.954,19.991l15.515,15.513a61.9,61.9,0,0,1,13.993-7.995,4.177,4.177,0,0,1,4-4c.09-.09.156-.194.237-.29.01-.009.022-.012.032-.021l3.179-3.207A14.154,14.154,0,0,0,1762.657,3036.749Zm-9.445,25.509a1.413,1.413,0,0,1-2,0l-2-2-3.793-3.793a1.413,1.413,0,0,0-2,2l3.793,3.793,2,2a1.416,1.416,0,0,1,0,2,1.445,1.445,0,0,1-2,0l-2-2-3.793-3.793a1.413,1.413,0,0,0-2,2l3.793,3.793,2,2a1.414,1.414,0,0,1-2,2l-15.514-15.513a11.3,11.3,0,0,1,14.316-17.362l-7.262,7.067a1.413,1.413,0,0,0-.014,2.013l1,1a7.067,7.067,0,0,0,9.969.026l1.4-1.326,10.1,10.1a1.414,1.414,0,0,1-2,2l-2-2-3.793-3.793a1.413,1.413,0,1,0-2,2l3.793,3.793,2,2a1.413,1.413,0,0,1,0,2Zm7.442-7.512-.652.658a4.2,4.2,0,0,0-.793-1.141l-11.049-11.05h0l-.026-.026a1.306,1.306,0,0,0-.208-.138,1.417,1.417,0,0,0-.244-.162,1.376,1.376,0,0,0-.279-.062.761.761,0,0,0-.53,0,1.385,1.385,0,0,0-.253.049,1.46,1.46,0,0,0-.231.145,1.323,1.323,0,0,0-.229.144l-2.423,2.3a4.245,4.245,0,0,1-5.984.013l6.91-6.725a11.309,11.309,0,1,1,15.99,16Z" transform="translate(-1721.57 -3032.61)" fill="#ce091e"/>
</svg>
