<svg xmlns="http://www.w3.org/2000/svg" width="142.676" height="157.81" viewBox="0 0 142.676 157.81">
  <g id="Grupo_208" data-name="Grupo 208" transform="translate(-382.265 -309.339)">
    <g id="Grupo_206" data-name="Grupo 206" transform="translate(382.265 300.839)">
      <g id="Grupo_205" data-name="Grupo 205" transform="translate(0 11.676)">
        <path id="Caminho_416" data-name="Caminho 416" d="M403.846,316.652l83.389-5.087c10.346-.631,18.239,7.842,17.59,18.941l-9.644,119.1c-1.165,11.3-9.428,18.5-18.493,16.093l-76.169-18.185c-9.835-2.1-18.067-10.815-18.254-19.509l1.839-93.944C384.636,325.088,393.5,317.283,403.846,316.652Z" transform="translate(-382.265 -311.532)" fill="#c0ce2e"/>
      </g>
      <path id="Caminho_417" data-name="Caminho 417" d="M434.906,413.257s22.528,18.22,49.173-15.151,41.337-50.9,23.128-77.434-95.7-29.819-105.449,11.084S434.906,413.257,434.906,413.257Z" transform="translate(-372.606 -292.339)" fill="#221f54"/>
    </g>
    <g id="Grupo_207" data-name="Grupo 207" transform="translate(401.265 318.577)">
      <path id="Caminho_418" data-name="Caminho 418" d="M444.285,372.566h3.9a1.334,1.334,0,1,0,0-2.668h-2.567v-6.244a1.334,1.334,0,0,0-2.667,0v7.577A1.335,1.335,0,0,0,444.285,372.566Z" transform="translate(-398.048 -309.5)" fill="#fff"/>
      <path id="Caminho_419" data-name="Caminho 419" d="M455.431,377.725a1.334,1.334,0,1,0-1.566-2.16c-7.42,5.379-14.584.235-14.892.007a1.334,1.334,0,0,0-1.591,2.143,17.3,17.3,0,0,0,9.342,2.932A14.572,14.572,0,0,0,455.431,377.725Z" transform="translate(-399.219 -307.009)" fill="#fff"/>
      <path id="Caminho_420" data-name="Caminho 420" d="M434.473,358.534c-1.576,0-2.853,1.769-2.853,3.951s1.278,3.951,2.853,3.951,2.853-1.77,2.853-3.951S436.049,358.534,434.473,358.534Z" transform="translate(-400.221 -310.226)" fill="#fff"/>
      <path id="Caminho_421" data-name="Caminho 421" d="M439.9,358.229a1.335,1.335,0,0,0,1.59-2.144,10.9,10.9,0,0,0-12.715-.01,1.335,1.335,0,0,0,.784,2.415,1.318,1.318,0,0,0,.782-.255C435.092,354.789,439.7,358.084,439.9,358.229Z" transform="translate(-400.873 -311.093)" fill="#fff"/>
      <path id="Caminho_422" data-name="Caminho 422" d="M454.931,358.534c-1.576,0-2.853,1.769-2.853,3.951s1.278,3.951,2.853,3.951,2.853-1.77,2.853-3.951S456.507,358.534,454.931,358.534Z" transform="translate(-396.298 -310.226)" fill="#fff"/>
      <path id="Caminho_423" data-name="Caminho 423" d="M450.807,358.229c.194-.142,4.806-3.44,9.559.006a1.334,1.334,0,1,0,1.567-2.159,10.9,10.9,0,0,0-12.715.01,1.334,1.334,0,0,0,1.589,2.144Z" transform="translate(-396.949 -311.093)" fill="#fff"/>
      <path id="Caminho_424" data-name="Caminho 424" d="M463.037,408v-5.359a30.1,30.1,0,0,0,19.1-25.589,8.264,8.264,0,0,0,.789-16.19,28.858,28.858,0,0,0,1.636-5.364,29.583,29.583,0,0,0-5.271-23.374,34.3,34.3,0,0,0-21.167-13.416,35.837,35.837,0,0,0-7.067-.709,33.789,33.789,0,0,0-20.339,6.713A29.587,29.587,0,0,0,419.5,342.385a29.173,29.173,0,0,0,1.76,17.135l.527,1.251a8.264,8.264,0,0,0,.48,16.3,30.105,30.105,0,0,0,19.711,25.806V408c-21.384,3.994-36.7,19.683-36.7,37.925v2.335h13.433v-4.668h-8.664c.956-11.336,8.826-21.332,20.508-26.994l11.919,26.994H430.935V429.7a2.338,2.338,0,0,0-4.669,0v18.557h73.47v-2.335C499.736,427.685,484.421,412,463.037,408Zm-8.294,15.877L453.149,441.2h-1.9l-1.595-17.325L452.2,421.8Zm-9.693.928,1.52,16.513-6.133-13.889Zm14.289.072,4.488,2.553-5.966,13.511Zm6.383-1.741-8.825-5.02,6.139-3.4v-1.962a49.955,49.955,0,0,1,6.482,1.785Zm18.787-54.258a3.6,3.6,0,0,1-2.277,3.343v-6.685A3.6,3.6,0,0,1,484.511,368.879Zm-60.437-25.572c2.41-11.958,13.758-20.638,26.982-20.638a31.133,31.133,0,0,1,6.145.617,29.651,29.651,0,0,1,18.306,11.575,24.966,24.966,0,0,1,4.479,19.716,24.585,24.585,0,0,1-.673,2.592,66.007,66.007,0,0,0-20.681-6.987c-13.642-1.867-14.847-2.616-16.167-6.436l-1.138-3.3-2.615,2.312c-.079.069-7.095,6.266-14.188,11.985A24.33,24.33,0,0,1,424.073,343.307Zm-4.289,25.573a3.6,3.6,0,0,1,2.38-3.381v6.76A3.6,3.6,0,0,1,419.784,368.881Zm7.049,5.752V358.876c4.892-3.921,9.833-8.151,12.638-10.582C442.15,352.427,447,353.3,458,354.807c7.607,1.042,14.981,4.325,19.565,6.719v13.106a25.365,25.365,0,1,1-50.73,0ZM452.2,404.667a30.074,30.074,0,0,0,6.17-.639v7.938l-5.874,3.254-5.85-3.252v-7.819A29.949,29.949,0,0,0,452.2,404.667Zm-10.224,8.09v1.959l5.754,3.2-9.186,5.225-3.691-8.359A49.5,49.5,0,0,1,441.974,412.757ZM478,443.593V429.7a2.337,2.337,0,0,0-4.668,0v13.889H461.8L473.847,416.3c12.021,5.606,20.149,15.755,21.122,27.291Z" transform="translate(-405.274 -318)" fill="#fff"/>
    </g>
  </g>
</svg>
