<svg xmlns="http://www.w3.org/2000/svg" width="45" height="36.565" viewBox="0 0 45 36.565">
  <g id="Grupo_122" data-name="Grupo 122" transform="translate(-1088.764 -3045.365)">
    <path id="Caminho_349" data-name="Caminho 349" d="M1133.218,3068.884l.009,0-5.357-18.413a7.016,7.016,0,0,0-13.712,1.049,8.256,8.256,0,0,0-5.788,0,7.014,7.014,0,0,0-13.708-1.056l-5.361,18.42.009,0a9.84,9.84,0,1,0,19.142,3.2v-7.031h5.625v7.031a9.844,9.844,0,1,0,19.142-3.2Zm-21.955-15.078c2.566,0,2.793,1.182,2.813,1.437v1.858a8.44,8.44,0,0,0-5.625,0v-1.858C1108.471,3054.987,1108.7,3053.805,1111.264,3053.805Zm-12.656,25.312a7.031,7.031,0,1,1,7.031-7.031A7.039,7.039,0,0,1,1098.608,3079.117Zm0-16.875a9.774,9.774,0,0,0-4.815,1.267l3.572-12.27a4.218,4.218,0,0,1,8.274,1.159v12.812A9.81,9.81,0,0,0,1098.608,3062.242Zm9.844,0v-1.376c.02-.255.247-1.437,2.812-1.437s2.793,1.182,2.813,1.437v1.376Zm8.438-9.844a4.219,4.219,0,0,1,8.278-1.153l3.569,12.264a9.8,9.8,0,0,0-11.847,1.7Zm7.031,26.719a7.031,7.031,0,1,1,7.031-7.031A7.039,7.039,0,0,1,1123.92,3079.117Z" transform="translate(0 0)" fill="#eb7700"/>
    <path id="Caminho_350" data-name="Caminho 350" d="M1302.619,3202.608a1.405,1.405,0,0,0-1.406,1.406,1.407,1.407,0,0,1-1.406,1.406,1.406,1.406,0,1,0,0,2.813,4.223,4.223,0,0,0,4.219-4.219A1.405,1.405,0,0,0,1302.619,3202.608Z" transform="translate(-175.886 -131.928)" fill="#eb7700"/>
    <path id="Caminho_351" data-name="Caminho 351" d="M1145.392,3202.608a1.406,1.406,0,0,0-1.406,1.406,1.407,1.407,0,0,1-1.406,1.406,1.406,1.406,0,1,0,0,2.813,4.223,4.223,0,0,0,4.219-4.219A1.405,1.405,0,0,0,1145.392,3202.608Z" transform="translate(-43.971 -131.928)" fill="#eb7700"/>
  </g>
</svg>
