<svg xmlns="http://www.w3.org/2000/svg" width="232.423" height="66.749" viewBox="0 0 232.423 66.749">
  <g id="Grupo_138" data-name="Grupo 138" transform="translate(-212.577 -825.789)">
    <g id="Grupo_126" data-name="Grupo 126" transform="translate(290.591 845.952)">
      <g id="Grupo_125" data-name="Grupo 125">
        <path id="Caminho_353" data-name="Caminho 353" d="M2419.5,1542.979l7.947-17.968h5.028v24.615h-3.762v-19.059l-7.35,16.878h-3.728l-7.348-16.878v19.059h-3.762v-24.615h5.028Z" transform="translate(-2406.527 -1524.553)" fill="#2e2f7b"/>
        <path id="Caminho_354" data-name="Caminho 354" d="M2435.6,1542.452l-2.567,7.174h-3.939l8.967-24.615h4.045l8.967,24.615h-3.938l-2.532-7.174Zm4.5-13.222-3.411,9.952h6.822Z" transform="translate(-2400.959 -1524.553)" fill="#2e2f7b"/>
        <path id="Caminho_355" data-name="Caminho 355" d="M2448.525,1525.011h3.9v24.615h-3.9Z" transform="translate(-2396.164 -1524.553)" fill="#2e2f7b"/>
        <path id="Caminho_356" data-name="Caminho 356" d="M2457.275,1543.07a4.961,4.961,0,0,0,4.817,3.481c2.214,0,3.692-1.231,3.692-3.305,0-5.2-11.076-4.045-11.076-11.955,0-3.834,2.847-6.646,7.384-6.646a7.453,7.453,0,0,1,7.279,5.028l-3.235,1.441a4.438,4.438,0,0,0-4.114-2.883c-2.179,0-3.411,1.337-3.411,3.024,0,4.854,11.147,3.973,11.147,11.709,0,4.114-2.989,7.209-7.841,7.209a8,8,0,0,1-7.948-5.556Z" transform="translate(-2394.821 -1524.644)" fill="#2e2f7b"/>
        <path id="Caminho_357" data-name="Caminho 357" d="M2487.463,1524.644a13.547,13.547,0,0,1,7.454,2.109l-1.934,6.119a7.973,7.973,0,0,0-5.169-1.829,6.366,6.366,0,0,0,0,12.729,7.973,7.973,0,0,0,5.169-1.829l1.934,6.119a13.547,13.547,0,0,1-7.454,2.109c-7.983,0-13.187-5.661-13.187-12.8C2474.276,1530.3,2479.48,1524.644,2487.463,1524.644Z" transform="translate(-2389.81 -1524.644)" fill="#2e2f7b"/>
        <path id="Caminho_358" data-name="Caminho 358" d="M2491.2,1537.373c0-7.1,5.169-12.729,13.292-12.729s13.293,5.627,13.293,12.729c0,7.209-5.17,12.8-13.293,12.8S2491.2,1544.582,2491.2,1537.373Zm7.315,0c0,3.692,2.391,6.4,5.977,6.4s5.978-2.708,5.978-6.4c0-3.587-2.391-6.33-5.978-6.33S2498.514,1533.786,2498.514,1537.373Z" transform="translate(-2385.634 -1524.644)" fill="#2e2f7b"/>
        <path id="Caminho_359" data-name="Caminho 359" d="M2514.243,1525.011h8.685c6.119,0,9.038,2.953,9.038,7.771a7.589,7.589,0,0,1-3.236,6.505l5.626,10.338h-7.7l-4.149-8.686h-1.265v8.686h-7Zm8.157,10.232a2.167,2.167,0,0,0,2.428-2.215c0-1.372-.844-2.146-2.428-2.146h-1.159v4.361Z" transform="translate(-2379.948 -1524.553)" fill="#2e2f7b"/>
      </g>
    </g>
    <g id="Grupo_127" data-name="Grupo 127" transform="translate(236.052 856.439)">
      <path id="Caminho_360" data-name="Caminho 360" d="M2374.375,1569.155a37.74,37.74,0,0,1-9.662-1.223,2.591,2.591,0,1,1,1.323-5.011,35.058,35.058,0,0,0,14.585.535c9.524-1.54,16.309-6.368,18.615-13.249,1.375-4.1.856-8.513-1.262-10.725a4,4,0,0,0-4.276-1.03,2.591,2.591,0,0,1-1.433-4.981,9.173,9.173,0,0,1,9.452,2.426c3.5,3.657,4.457,9.919,2.434,15.956-2.938,8.768-11.214,14.862-22.7,16.718A44.278,44.278,0,0,1,2374.375,1569.155Z" transform="translate(-2362.782 -1533.056)" fill="#9bcf02"/>
    </g>
    <g id="Grupo_128" data-name="Grupo 128" transform="translate(213.254 861.625)">
      <path id="Caminho_361" data-name="Caminho 361" d="M2369.887,1566.992a2.591,2.591,0,0,1-.663-.087,33.947,33.947,0,0,1-24.686-26.636,2.592,2.592,0,0,1,5.1-.924,28.745,28.745,0,0,0,20.908,22.549,2.592,2.592,0,0,1-.659,5.1Z" transform="translate(-2344.496 -1537.215)" fill="#618e1a"/>
    </g>
    <g id="Grupo_129" data-name="Grupo 129" transform="translate(212.577 829.363)">
      <path id="Caminho_362" data-name="Caminho 362" d="M2347.221,1548.784a2.591,2.591,0,0,1-2.506-1.939c-2.672-10.268,1.446-28.233,16.127-35.253a2.592,2.592,0,1,1,2.237,4.677c-12,5.74-15.512,20.952-13.348,29.271a2.591,2.591,0,0,1-1.855,3.161A2.651,2.651,0,0,1,2347.221,1548.784Z" transform="translate(-2343.953 -1511.338)" fill="#b3d532"/>
    </g>
    <g id="Grupo_130" data-name="Grupo 130" transform="translate(227.992 825.789)">
      <path id="Caminho_363" data-name="Caminho 363" d="M2387.867,1522.24c-.065,0-.129,0-.2-.007a2.593,2.593,0,0,1-2.391-2.778,1.6,1.6,0,0,0-.343-1.192c-5.494-6.545-18.107-5.216-24.729-1.381a2.592,2.592,0,1,1-2.6-4.486c8.229-4.764,23.683-6.533,31.3,2.533a6.794,6.794,0,0,1,1.542,4.912A2.592,2.592,0,0,1,2387.867,1522.24Z" transform="translate(-2356.317 -1508.472)" fill="#c0ce2e"/>
    </g>
    <g id="Grupo_131" data-name="Grupo 131" transform="translate(250.553 832.553)">
      <path id="Caminho_364" data-name="Caminho 364" d="M2387.242,1543.581a12.311,12.311,0,0,1-11.232-6.529c-2.484-4.568-2.03-10.185,1.081-13.355,2.612-2.663,4.122-4.673,3.585-6.465a2.591,2.591,0,1,1,4.965-1.486c1.524,5.083-2.466,9.151-4.85,11.581-1.5,1.533-1.6,4.718-.228,7.25.8,1.466,3.271,4.748,9.031,3.573a2.592,2.592,0,0,1,1.036,5.079A16.95,16.95,0,0,1,2387.242,1543.581Z" transform="translate(-2374.413 -1513.897)" fill="#618e1a"/>
    </g>
    <g id="Grupo_132" data-name="Grupo 132" transform="translate(255.641 866.189)">
      <path id="Caminho_365" data-name="Caminho 365" d="M2384.259,1552.406a5.765,5.765,0,1,1,5.765-5.765A5.772,5.772,0,0,1,2384.259,1552.406Zm0-8.938a3.173,3.173,0,1,0,3.173,3.173A3.176,3.176,0,0,0,2384.259,1543.468Z" transform="translate(-2378.494 -1540.876)" fill="#b3d532"/>
    </g>
    <g id="Grupo_133" data-name="Grupo 133" transform="translate(241.18 872.878)">
      <path id="Caminho_366" data-name="Caminho 366" d="M2372.66,1557.771a5.765,5.765,0,1,1,5.764-5.765A5.772,5.772,0,0,1,2372.66,1557.771Zm0-8.938a3.173,3.173,0,1,0,3.173,3.173A3.176,3.176,0,0,0,2372.66,1548.833Z" transform="translate(-2366.895 -1546.241)" fill="#9bcf02"/>
    </g>
    <g id="Grupo_134" data-name="Grupo 134" transform="translate(226.785 865.153)">
      <path id="Caminho_367" data-name="Caminho 367" d="M2361.114,1551.574a5.764,5.764,0,1,1,5.764-5.765A5.771,5.771,0,0,1,2361.114,1551.574Zm0-8.937a3.173,3.173,0,1,0,3.173,3.172A3.175,3.175,0,0,0,2361.114,1542.637Z" transform="translate(-2355.349 -1540.045)" fill="#c0ce2e"/>
    </g>
    <g id="Grupo_135" data-name="Grupo 135" transform="translate(221.389 850.948)">
      <path id="Caminho_368" data-name="Caminho 368" d="M2356.786,1540.181a5.765,5.765,0,1,1,5.765-5.765A5.771,5.771,0,0,1,2356.786,1540.181Zm0-8.938a3.173,3.173,0,1,0,3.173,3.173A3.176,3.176,0,0,0,2356.786,1531.243Z" transform="translate(-2351.021 -1528.651)" fill="#618e1a"/>
    </g>
    <g id="Grupo_136" data-name="Grupo 136" transform="translate(229.392 837.716)">
      <path id="Caminho_369" data-name="Caminho 369" d="M2363.2,1529.568a5.765,5.765,0,1,1,5.765-5.765A5.771,5.771,0,0,1,2363.2,1529.568Zm0-8.938a3.173,3.173,0,1,0,3.173,3.173A3.176,3.176,0,0,0,2363.2,1520.63Z" transform="translate(-2357.44 -1518.038)" fill="#b3d532"/>
    </g>
  </g>
</svg>
